<?xml version="1.0" encoding="utf-8"?>
<!-- Generator: Adobe Illustrator 21.1.0, SVG Export Plug-In . SVG Version: 6.00 Build 0)  -->
<svg version="1.1" id="Layer_1" xmlns="http://www.w3.org/2000/svg" xmlns:xlink="http://www.w3.org/1999/xlink" x="0px" y="0px"
	 viewBox="0 0 73.1 71.2" style="enable-background:new 0 0 73.1 71.2;" xml:space="preserve">
<style type="text/css">
	.st0{fill:#FFFFFF;}
</style>
<path class="st0" d="M35.5,8.9C20.8,8.9,8.9,20.8,8.9,35.6c0,14.7,11.9,26.7,26.7,26.7c14.7,0,26.7-11.9,26.7-26.7
	C62.2,20.8,50.3,8.9,35.5,8.9 M57.5,34.3c-5.7-0.9-11-1-15.8-0.2c-0.5-1.3-1.1-2.5-1.7-3.7c5.1-2.2,9.3-5.2,12.3-9.1
	C55.4,24.9,57.2,29.4,57.5,34.3 M49,18.1c-2.7,3.5-6.4,6.2-11.1,8.2c-2.3-4.1-4.8-8.2-7.8-12.1c1.7-0.4,3.5-0.7,5.4-0.7
	C40.6,13.5,45.3,15.3,49,18.1 M25.6,15.9c3,3.9,5.6,7.9,7.9,12c-5.4,1.6-11.9,2.4-19.3,2.5C15.7,24.1,19.9,18.8,25.6,15.9
	 M13.5,35.6c0-0.2,0-0.4,0-0.6c8.6,0,15.9-1,22.1-2.9c0.5,1.1,1,2.1,1.5,3.2c-7.5,2.4-13.7,7.2-18.5,14.4
	C15.4,45.8,13.5,40.9,13.5,35.6 M22,52.9c4.4-6.9,10-11.3,16.9-13.4c2.1,5.4,3.6,10.9,4.5,16.6C36,59,28,57.6,22,52.9 M47.8,53.9
	c-1-5.2-2.4-10.3-4.3-15.3c4.2-0.6,8.8-0.4,13.8,0.4C56.3,45.2,52.8,50.5,47.8,53.9"/>
</svg>
