<?xml version="1.0" encoding="utf-8"?>
<!-- Generator: Adobe Illustrator 16.0.0, SVG Export Plug-In . SVG Version: 6.00 Build 0)  -->
<!DOCTYPE svg PUBLIC "-//W3C//DTD SVG 1.1//EN" "http://www.w3.org/Graphics/SVG/1.1/DTD/svg11.dtd">
<svg version="1.1" id="Layer_1" xmlns="http://www.w3.org/2000/svg" xmlns:xlink="http://www.w3.org/1999/xlink" x="0px" y="0px"
	 width="73.077px" height="71.153px" viewBox="0 0 73.077 71.153" enable-background="new 0 0 73.077 71.153" xml:space="preserve">
<path fill="#010101" d="M35.538,8.891c-14.739,0-26.686,11.948-26.686,26.687c0,14.737,11.947,26.687,26.686,26.687
	c14.74,0,26.687-11.949,26.687-26.687C62.225,20.839,50.278,8.891,35.538,8.891 M57.521,34.334
	c-5.727-0.939-10.994-0.989-15.795-0.161c-0.543-1.254-1.105-2.5-1.705-3.737c5.136-2.224,9.262-5.245,12.337-9.077
	C55.36,24.903,57.244,29.405,57.521,34.334 M48.977,18.141c-2.681,3.455-6.378,6.188-11.089,8.183
	c-2.259-4.139-4.843-8.175-7.757-12.092c1.733-0.44,3.54-0.7,5.407-0.7C40.598,13.531,45.253,15.264,48.977,18.141 M25.592,15.931
	c2.96,3.874,5.583,7.867,7.866,11.966c-5.406,1.591-11.856,2.409-19.314,2.46C15.684,24.051,19.93,18.807,25.592,15.931
	 M13.493,35.577c0-0.192,0.024-0.378,0.028-0.569c8.559-0.012,15.943-0.996,22.128-2.94c0.519,1.056,1.014,2.116,1.49,3.184
	c-7.517,2.351-13.71,7.165-18.541,14.412C15.415,45.841,13.493,40.93,13.493,35.577 M22.008,52.944
	c4.379-6.866,9.968-11.336,16.896-13.402c2.064,5.381,3.579,10.918,4.544,16.59C36.002,59.004,27.985,57.613,22.008,52.944
	 M47.774,53.901c-0.974-5.231-2.401-10.348-4.271-15.338c4.172-0.589,8.764-0.436,13.787,0.437
	C56.318,45.196,52.78,50.548,47.774,53.901"/>
</svg>
