<?xml version="1.0" encoding="utf-8"?>
<!-- Generator: Adobe Illustrator 21.0.0, SVG Export Plug-In . SVG Version: 6.00 Build 0)  -->
<svg version="1.1" id="Layer_1" xmlns="http://www.w3.org/2000/svg" xmlns:xlink="http://www.w3.org/1999/xlink" x="0px" y="0px"
	 viewBox="0 0 100 99.4" style="enable-background:new 0 0 100 99.4;" xml:space="preserve">
<style type="text/css">
	.st0{fill:#010101;}
</style>
<path id="dribbble-1" class="st0" d="M50.3,4.3C25.3,4.3,5,24.6,5,49.6c0,25,20.3,45.2,45.2,45.2s45.2-20.3,45.2-45.2
	C95.5,24.6,75.2,4.3,50.3,4.3z M87.5,47.5c-9.7-1.6-18.6-1.7-26.8-0.3c-0.9-2.1-1.9-4.2-2.9-6.3c8.7-3.8,15.7-8.9,20.9-15.4
	C83.9,31.5,87.1,39.1,87.5,47.5z M73,20c-4.5,5.9-10.8,10.5-18.8,13.9c-3.8-7-8.2-13.9-13.1-20.5c2.9-0.7,6-1.2,9.2-1.2
	C58.8,12.2,66.7,15.1,73,20z M33.4,16.3c5,6.6,9.5,13.3,13.3,20.3c-9.2,2.7-20.1,4.1-32.7,4.2C16.6,30,23.8,21.2,33.4,16.3z
	 M12.9,49.6c0-0.3,0-0.6,0-1c14.5,0,27-1.7,37.5-5c0.9,1.8,1.7,3.6,2.5,5.4c-12.7,4-23.2,12.1-31.4,24.4
	C16.1,67,12.9,58.7,12.9,49.6z M27.3,79C34.7,67.4,44.2,59.8,56,56.3c3.5,9.1,6.1,18.5,7.7,28.1C51,89.3,37.5,86.9,27.3,79z
	 M71,80.6c-1.6-8.9-4.1-17.5-7.2-26c7.1-1,14.9-0.7,23.4,0.7C85.5,65.9,79.5,75,71,80.6z"/>
</svg>
