<?xml version="1.0" encoding="utf-8"?>
<!-- Generator: Adobe Illustrator 16.0.0, SVG Export Plug-In . SVG Version: 6.00 Build 0)  -->
<!DOCTYPE svg PUBLIC "-//W3C//DTD SVG 1.1//EN" "http://www.w3.org/Graphics/SVG/1.1/DTD/svg11.dtd">
<svg version="1.1" id="Layer_1" xmlns="http://www.w3.org/2000/svg" xmlns:xlink="http://www.w3.org/1999/xlink" x="0px" y="0px"
	 width="73.077px" height="71.153px" viewBox="0 0 73.077 71.153" enable-background="new 0 0 73.077 71.153" xml:space="preserve">
<path fill="#010101" d="M36.699,13.25c7.126,0,7.97,0.027,10.785,0.155c7.232,0.329,10.609,3.76,10.939,10.939
	c0.128,2.814,0.154,3.656,0.154,10.782c0,7.127-0.026,7.971-0.154,10.784c-0.33,7.172-3.7,10.609-10.939,10.938
	c-2.814,0.129-3.656,0.155-10.785,0.155c-7.125,0-7.97-0.026-10.783-0.155c-7.251-0.33-10.611-3.775-10.939-10.938
	c-0.128-2.813-0.156-3.657-0.156-10.784c0-7.126,0.028-7.968,0.156-10.782c0.33-7.179,3.701-10.61,10.939-10.939
	C28.731,13.277,29.574,13.25,36.699,13.25 M36.699,8.44c-7.247,0-8.155,0.031-11.002,0.161c-9.693,0.443-15.078,5.821-15.524,15.523
	c-0.13,2.846-0.16,3.755-0.16,11.002c0,7.248,0.03,8.158,0.16,11.003c0.446,9.693,5.823,15.079,15.524,15.524
	c2.847,0.13,3.755,0.159,11.002,0.159c7.248,0,8.157-0.029,11.003-0.159c9.683-0.444,15.084-5.822,15.522-15.524
	c0.13-2.845,0.161-3.755,0.161-11.003c0-7.247-0.031-8.156-0.161-11.002c-0.437-9.682-5.819-15.078-15.522-15.523
	C44.856,8.472,43.947,8.44,36.699,8.44 M36.699,21.423c-7.568,0-13.704,6.137-13.704,13.704c0,7.568,6.136,13.705,13.704,13.705
	c7.569,0,13.704-6.137,13.704-13.705C50.403,27.56,44.268,21.423,36.699,21.423 M36.699,44.022c-4.912,0-8.895-3.981-8.895-8.896
	c0-4.912,3.983-8.896,8.895-8.896c4.913,0,8.896,3.983,8.896,8.896C45.595,40.041,41.612,44.022,36.699,44.022 M50.947,17.681
	c-1.771,0-3.203,1.433-3.203,3.202c0,1.769,1.433,3.202,3.203,3.202c1.768,0,3.2-1.434,3.2-3.202
	C54.147,19.113,52.714,17.681,50.947,17.681"/>
</svg>
