<?xml version="1.0" encoding="utf-8"?>
<!-- Generator: Adobe Illustrator 21.0.0, SVG Export Plug-In . SVG Version: 6.00 Build 0)  -->
<svg version="1.1" id="Layer_1" xmlns="http://www.w3.org/2000/svg" xmlns:xlink="http://www.w3.org/1999/xlink" x="0px" y="0px"
	 viewBox="0 0 100 99.4" style="enable-background:new 0 0 100 99.4;" xml:space="preserve">
<style type="text/css">
	.st0{fill:#010101;}
</style>
<path id="instagram-11" class="st0" d="M51.2,12.7c11.8,0,13.2,0,17.9,0.3c12,0.5,17.6,6.2,18.2,18.2c0.2,4.7,0.3,6.1,0.3,17.9
	c0,11.8,0,13.2-0.3,17.9c-0.5,11.9-6.1,17.6-18.2,18.2c-4.7,0.2-6.1,0.3-17.9,0.3c-11.8,0-13.2,0-17.9-0.3
	C21.3,84.6,15.7,78.9,15.1,67c-0.2-4.7-0.3-6.1-0.3-17.9c0-11.8,0-13.2,0.3-17.9c0.5-11.9,6.1-17.6,18.2-18.2
	C38,12.7,39.4,12.7,51.2,12.7z M51.2,4.7C39.2,4.7,37.7,4.7,33,5C16.8,5.7,7.9,14.6,7.2,30.8C6.9,35.5,6.9,37,6.9,49
	c0,12,0.1,13.6,0.3,18.3C7.9,83.4,16.8,92.4,33,93.1c4.7,0.2,6.2,0.3,18.3,0.3c12,0,13.6-0.1,18.3-0.3c16.1-0.7,25.1-9.7,25.8-25.8
	c0.2-4.7,0.3-6.2,0.3-18.3c0-12-0.1-13.6-0.3-18.3C94.6,14.7,85.6,5.7,69.5,5C64.8,4.7,63.3,4.7,51.2,4.7z M51.2,26.3
	c-12.6,0-22.8,10.2-22.8,22.8c0,12.6,10.2,22.8,22.8,22.8C63.8,71.8,74,61.6,74,49C74,36.5,63.8,26.3,51.2,26.3z M51.2,63.8
	c-8.2,0-14.8-6.6-14.8-14.8c0-8.2,6.6-14.8,14.8-14.8C59.4,34.3,66,40.9,66,49C66,57.2,59.4,63.8,51.2,63.8z M74.9,20.1
	c-2.9,0-5.3,2.4-5.3,5.3s2.4,5.3,5.3,5.3c2.9,0,5.3-2.4,5.3-5.3S77.8,20.1,74.9,20.1z"/>
</svg>
