<?xml version="1.0" encoding="utf-8"?>
<!-- Generator: Adobe Illustrator 21.1.0, SVG Export Plug-In . SVG Version: 6.00 Build 0)  -->
<svg version="1.1" id="Layer_1" xmlns="http://www.w3.org/2000/svg" xmlns:xlink="http://www.w3.org/1999/xlink" x="0px" y="0px"
	 viewBox="0 0 73.1 71.2" style="enable-background:new 0 0 73.1 71.2;" xml:space="preserve">
<style type="text/css">
	.st0{fill:#FFFFFF;}
</style>
<path class="st0" d="M36.7,13.2c7.1,0,8,0,10.8,0.2c7.2,0.3,10.6,3.8,10.9,10.9c0.1,2.8,0.2,3.7,0.2,10.8c0,7.1,0,8-0.2,10.8
	c-0.3,7.2-3.7,10.6-10.9,10.9C44.7,57,43.8,57,36.7,57c-7.1,0-8,0-10.8-0.2c-7.3-0.3-10.6-3.8-10.9-10.9c-0.1-2.8-0.2-3.7-0.2-10.8
	c0-7.1,0-8,0.2-10.8c0.3-7.2,3.7-10.6,10.9-10.9C28.7,13.3,29.6,13.2,36.7,13.2 M36.7,8.4c-7.2,0-8.2,0-11,0.2
	C16,9,10.6,14.4,10.2,24.1C10,27,10,27.9,10,35.1c0,7.2,0,8.2,0.2,11c0.4,9.7,5.8,15.1,15.5,15.5c2.8,0.1,3.8,0.2,11,0.2
	c7.2,0,8.2,0,11-0.2c9.7-0.4,15.1-5.8,15.5-15.5c0.1-2.8,0.2-3.8,0.2-11c0-7.2,0-8.2-0.2-11C62.8,14.4,57.4,9,47.7,8.6
	C44.9,8.5,43.9,8.4,36.7,8.4 M36.7,21.4c-7.6,0-13.7,6.1-13.7,13.7c0,7.6,6.1,13.7,13.7,13.7c7.6,0,13.7-6.1,13.7-13.7
	C50.4,27.6,44.3,21.4,36.7,21.4 M36.7,44c-4.9,0-8.9-4-8.9-8.9c0-4.9,4-8.9,8.9-8.9c4.9,0,8.9,4,8.9,8.9C45.6,40,41.6,44,36.7,44
	 M50.9,17.7c-1.8,0-3.2,1.4-3.2,3.2c0,1.8,1.4,3.2,3.2,3.2c1.8,0,3.2-1.4,3.2-3.2C54.1,19.1,52.7,17.7,50.9,17.7"/>
</svg>
