<?xml version="1.0" encoding="utf-8"?>
<!-- Generator: Adobe Illustrator 21.1.0, SVG Export Plug-In . SVG Version: 6.00 Build 0)  -->
<svg version="1.1" id="Layer_1" xmlns="http://www.w3.org/2000/svg" xmlns:xlink="http://www.w3.org/1999/xlink" x="0px" y="0px"
	 viewBox="0 0 171.6 131.6" style="enable-background:new 0 0 171.6 131.6;" xml:space="preserve">
<style type="text/css">
	.st0{fill:#FFFFFF;stroke:#000000;stroke-miterlimit:10;}
	.st1{fill:#010101;}
</style>
<ellipse class="st0" cx="85.2" cy="56.8" rx="47.8" ry="39.2"/>
<title>Artboard 1</title>
<path class="st1" d="M163.4,11.3c-7.6-7.6-18.2-10.1-27-1.3c-1.4,1.4-2.6,2.9-3.7,4.5c-0.3-0.2-0.6-0.4-0.9-0.6
	C119,6,102.3,4.5,84.9,4.5c-17.6,0-33.3,2.6-46,10c-1.1-1.9-2.5-3.6-4-5.2c-8.8-8.8-18.7-7-26.3,0.6S-1.5,28,7.3,36.8
	c2.5,2.5,5.4,4.5,8.6,6.1c-1.8,6.1-2.7,12.5-2.6,18.9c0,17,5.4,32.8,19.4,43.8c13.6,10.8,32.3,23.8,52.9,23.8
	c18.8,0,36-12,49.2-21.1c16.1-11.2,22.4-28,22.4-46.5c0-6.1-0.8-12.2-2.5-18.1c3.5-1.3,6.6-3.4,9.3-6
	C172.8,28.8,171,18.9,163.4,11.3z M62.4,38c-0.8,2.7-3.9,3.6-6.6,2.8c-2.7-1-4.3-4-3.5-6.8c0.8-2.6,3.4-2.9,6.1-2S63.3,35.3,62.4,38
	z M85.8,89.1c-18.4,0-22.9-11.2-22.9-24.9s12.3-26.9,22.9-26.9s22.9,13.2,22.9,26.9S104.2,89.1,85.8,89.1z M115.8,40.7
	c-2.7,0.8-5.7-0.1-6.6-2.8s1.4-5.2,4-6.1s5.2-0.6,6.1,2C120.1,36.7,118.5,39.7,115.8,40.7L115.8,40.7z"/>
<path class="st1" d="M97.4,55.1c0,5.6-7.7,11.6-11.6,11.6s-11.6-6-11.6-11.6c0-6.4,5.2-6.4,11.6-6.4S97.4,48.7,97.4,55.1z"/>
</svg>
