<?xml version="1.0" encoding="utf-8"?>
<!-- Generator: Adobe Illustrator 21.1.0, SVG Export Plug-In . SVG Version: 6.00 Build 0)  -->
<svg version="1.1" id="Layer_1" xmlns="http://www.w3.org/2000/svg" xmlns:xlink="http://www.w3.org/1999/xlink" x="0px" y="0px"
	 viewBox="0 0 105.1 125.1" style="enable-background:new 0 0 105.1 125.1;" xml:space="preserve">
<style type="text/css">
	.st0{fill:#FFFFFF;}
	.st1{opacity:0.4;}
	.st2{fill:#010101;}
</style>
<polygon class="st0" points="105.1,125.1 52.2,105.1 0,125.1 0,0 105.1,0 "/>
<g class="st1">
	<path class="st2" d="M82,34.5c-2.9-2.9-7-3.9-10.4-0.5c-0.5,0.5-1,1.1-1.4,1.7c-0.1-0.1-0.2-0.2-0.3-0.2
		c-4.9-3.1-11.3-3.7-18.1-3.7c-6.8,0-12.8,1-17.7,3.8c-0.4-0.7-0.9-1.4-1.5-2c-3.4-3.4-7.2-2.7-10.1,0.2c-2.9,2.9-3.9,7-0.5,10.4
		c1,1,2.1,1.8,3.3,2.3c-0.7,2.3-1,4.7-1,7.3c0,6.6,2.1,12.6,7.5,16.9c5.2,4.1,12.4,9.2,20.4,9.2c7.2,0,13.9-4.6,18.9-8.1
		c6.2-4.3,8.6-10.8,8.6-17.9c0-2.4-0.3-4.8-1-7c1.3-0.5,2.6-1.3,3.6-2.3C85.7,41.2,85,37.4,82,34.5z M43.2,44.7
		c-0.3,1-1.5,1.4-2.5,1.1c-1-0.3-1.7-1.6-1.4-2.6c0.3-1,1.3-1.1,2.3-0.8C42.6,42.7,43.5,43.7,43.2,44.7z M52.2,64.4
		c-7.1,0-8.8-4.3-8.8-9.6s4.7-10.4,8.8-10.4S61,49.5,61,54.8S59.3,64.4,52.2,64.4z M63.7,45.8c-1,0.3-2.2-0.1-2.5-1.1
		c-0.3-1,0.5-2,1.6-2.3c1-0.3,2-0.2,2.3,0.8C65.4,44.2,64.7,45.5,63.7,45.8z"/>
	<path class="st2" d="M56.6,51.3c0,2.1-3,4.5-4.5,4.5s-4.5-2.3-4.5-4.5c0-2.5,2-2.5,4.5-2.5S56.6,48.8,56.6,51.3z"/>
</g>
</svg>
