<?xml version="1.0" encoding="utf-8"?>
<!-- Generator: Adobe Illustrator 21.0.0, SVG Export Plug-In . SVG Version: 6.00 Build 0)  -->
<svg version="1.1" id="Layer_1" xmlns="http://www.w3.org/2000/svg" xmlns:xlink="http://www.w3.org/1999/xlink" x="0px" y="0px"
	 viewBox="0 0 100 99.4" style="enable-background:new 0 0 100 99.4;" xml:space="preserve">
<style type="text/css">
	.st0{fill:#010101;}
</style>
<path id="linkedin-1" class="st0" d="M25.3,16.3c0,5-4,9.1-9,9.1s-9-4.1-9-9.1c0-5,4-9.1,9-9.1S25.3,11.3,25.3,16.3z M25.4,32.7H7.2
	v58.2h18.2V32.7z M54.4,32.7H36.4v58.2h18.1c0,0,0-21.6,0-30.6c0-17,21.9-18.4,21.9,0c0,8.4,0,30.6,0,30.6h18.1c0,0,0-21.3,0-36.9
	c0-28.7-32.5-27.6-40.1-13.5V32.7z"/>
</svg>
