<?xml version="1.0" encoding="utf-8"?>
<!-- Generator: Adobe Illustrator 16.0.0, SVG Export Plug-In . SVG Version: 6.00 Build 0)  -->
<!DOCTYPE svg PUBLIC "-//W3C//DTD SVG 1.1//EN" "http://www.w3.org/Graphics/SVG/1.1/DTD/svg11.dtd">
<svg version="1.1" id="Layer_1" xmlns="http://www.w3.org/2000/svg" xmlns:xlink="http://www.w3.org/1999/xlink" x="0px" y="0px"
	 width="73.077px" height="71.153px" viewBox="0 0 73.077 71.153" enable-background="new 0 0 73.077 71.153" xml:space="preserve">
<path fill="#010101" d="M63.224,17.674c-1.963,0.87-4.074,1.459-6.289,1.724c2.26-1.354,3.998-3.501,4.814-6.058
	c-2.115,1.255-4.457,2.166-6.953,2.657c-1.996-2.129-4.844-3.458-7.992-3.458c-7.07,0-12.265,6.596-10.667,13.444
	c-9.101-0.456-17.168-4.815-22.569-11.44c-2.869,4.921-1.487,11.359,3.388,14.62c-1.794-0.058-3.483-0.55-4.959-1.37
	c-0.118,5.073,3.518,9.817,8.783,10.875c-1.542,0.419-3.229,0.516-4.944,0.188c1.392,4.351,5.436,7.516,10.229,7.604
	c-4.604,3.607-10.403,5.219-16.212,4.535c4.845,3.106,10.602,4.919,16.786,4.919c20.329,0,31.815-17.171,31.124-32.572
	C59.9,21.798,61.757,19.869,63.224,17.674"/>
</svg>
