<?xml version="1.0" encoding="utf-8"?>
<!-- Generator: Adobe Illustrator 21.0.0, SVG Export Plug-In . SVG Version: 6.00 Build 0)  -->
<svg version="1.1" id="Layer_1" xmlns="http://www.w3.org/2000/svg" xmlns:xlink="http://www.w3.org/1999/xlink" x="0px" y="0px"
	 viewBox="0 0 100 99.4" style="enable-background:new 0 0 100 99.4;" xml:space="preserve">
<style type="text/css">
	.st0{fill:#010101;}
</style>
<path id="twitter-1" class="st0" d="M95.3,21.9c-3.3,1.5-6.8,2.4-10.5,2.9c3.8-2.3,6.7-5.8,8-10.1c-3.5,2.1-7.4,3.6-11.6,4.4
	c-3.3-3.6-8.1-5.8-13.3-5.8c-11.8,0-20.5,11-17.8,22.5c-15.2-0.8-28.7-8-37.7-19.1c-4.8,8.2-2.5,19,5.7,24.4c-3-0.1-5.8-0.9-8.3-2.3
	C9.5,47.3,15.6,55.2,24.4,57c-2.6,0.7-5.4,0.9-8.3,0.3c2.3,7.3,9.1,12.6,17.1,12.7c-7.7,6-17.4,8.7-27.1,7.6
	c8.1,5.2,17.7,8.2,28,8.2c34,0,53.1-28.7,52-54.4C89.7,28.8,92.8,25.6,95.3,21.9z"/>
</svg>
