<?xml version="1.0" encoding="utf-8"?>
<!-- Generator: Adobe Illustrator 21.1.0, SVG Export Plug-In . SVG Version: 6.00 Build 0)  -->
<svg version="1.1" id="Layer_1" xmlns="http://www.w3.org/2000/svg" xmlns:xlink="http://www.w3.org/1999/xlink" x="0px" y="0px"
	 viewBox="0 0 73.1 71.2" style="enable-background:new 0 0 73.1 71.2;" xml:space="preserve">
<style type="text/css">
	.st0{fill:#FFFFFF;}
</style>
<path class="st0" d="M63.2,17.7c-2,0.9-4.1,1.5-6.3,1.7c2.3-1.4,4-3.5,4.8-6.1c-2.1,1.3-4.5,2.2-7,2.7c-2-2.1-4.8-3.5-8-3.5
	c-7.1,0-12.3,6.6-10.7,13.4C27,25.5,19,21.2,13.6,14.5c-2.9,4.9-1.5,11.4,3.4,14.6c-1.8-0.1-3.5-0.5-5-1.4
	c-0.1,5.1,3.5,9.8,8.8,10.9c-1.5,0.4-3.2,0.5-4.9,0.2c1.4,4.4,5.4,7.5,10.2,7.6c-4.6,3.6-10.4,5.2-16.2,4.5
	c4.8,3.1,10.6,4.9,16.8,4.9c20.3,0,31.8-17.2,31.1-32.6C59.9,21.8,61.8,19.9,63.2,17.7"/>
</svg>
